<?xml version="1.0" encoding="UTF-8"?>
<svg width="256" height="256" viewBox="0 0 256 256" xmlns="http://www.w3.org/2000/svg">
  <!-- Background circle -->
  <circle cx="128" cy="128" r="120" fill="#2e3440" stroke="#4c566a" stroke-width="4"/>

  <!-- MIDI keyboard keys -->
  <g transform="translate(40, 80)">
    <!-- White keys -->
    <rect x="0" y="0" width="25" height="80" fill="#eceff4" stroke="#4c566a" stroke-width="2"/>
    <rect x="28" y="0" width="25" height="80" fill="#eceff4" stroke="#4c566a" stroke-width="2"/>
    <rect x="56" y="0" width="25" height="80" fill="#eceff4" stroke="#4c566a" stroke-width="2"/>
    <rect x="84" y="0" width="25" height="80" fill="#eceff4" stroke="#4c566a" stroke-width="2"/>
    <rect x="112" y="0" width="25" height="80" fill="#eceff4" stroke="#4c566a" stroke-width="2"/>
    <rect x="140" y="0" width="25" height="80" fill="#eceff4" stroke="#4c566a" stroke-width="2"/>
    <rect x="168" y="0" width="25" height="80" fill="#eceff4" stroke="#4c566a" stroke-width="2"/>

    <!-- Black keys -->
    <rect x="18" y="0" width="18" height="50" fill="#2e3440" stroke="#4c566a" stroke-width="1"/>
    <rect x="46" y="0" width="18" height="50" fill="#2e3440" stroke="#4c566a" stroke-width="1"/>
    <rect x="102" y="0" width="18" height="50" fill="#2e3440" stroke="#4c566a" stroke-width="1"/>
    <rect x="130" y="0" width="18" height="50" fill="#2e3440" stroke="#4c566a" stroke-width="1"/>
    <rect x="158" y="0" width="18" height="50" fill="#2e3440" stroke="#4c566a" stroke-width="1"/>
  </g>

  <!-- Control knobs -->
  <g transform="translate(60, 170)">
    <circle cx="20" cy="20" r="15" fill="#3b4252" stroke="#88c0d0" stroke-width="2"/>
    <circle cx="20" cy="20" r="3" fill="#88c0d0"/>
    <line x1="20" y1="20" x2="20" y2="8" stroke="#88c0d0" stroke-width="2" stroke-linecap="round"/>
  </g>

  <g transform="translate(108, 170)">
    <circle cx="20" cy="20" r="15" fill="#3b4252" stroke="#88c0d0" stroke-width="2"/>
    <circle cx="20" cy="20" r="3" fill="#88c0d0"/>
    <line x1="20" y1="20" x2="28" y2="12" stroke="#88c0d0" stroke-width="2" stroke-linecap="round"/>
  </g>

  <g transform="translate(156, 170)">
    <circle cx="20" cy="20" r="15" fill="#3b4252" stroke="#88c0d0" stroke-width="2"/>
    <circle cx="20" cy="20" r="3" fill="#88c0d0"/>
    <line x1="20" y1="20" x2="12" y2="12" stroke="#88c0d0" stroke-width="2" stroke-linecap="round"/>
  </g>
</svg>